HIERARCHY
ROOT Hips
{
 OFFSET 0.000000 0.000000 0.000000
 CHANNELS 6 Xposition Yposition Zposition Yrotation Xrotation Zrotation
 JOINT Chest
 {
  OFFSET 0.000000 9.585900 0.002600
  CHANNELS 3 Yrotation Xrotation Zrotation
  JOINT Chest2
  {
   OFFSET 0.000000 9.601200 -0.005300
   CHANNELS 3 Yrotation Xrotation Zrotation
   JOINT Chest3
   {
    OFFSET 0.000000 9.561800 0.000000
    CHANNELS 3 Yrotation Xrotation Zrotation
    JOINT Chest4
    {
     OFFSET 0.000000 9.552100 0.000000
     CHANNELS 3 Yrotation Xrotation Zrotation
     JOINT Neck
     {
      OFFSET 0.000000 14.453000 0.000000
      CHANNELS 3 Yrotation Xrotation Zrotation
      JOINT Head
      {
       OFFSET 0.000000 8.936500 -0.011300
       CHANNELS 3 Yrotation Xrotation Zrotation
       End Site
       {
        OFFSET 0.000000 17.073600 -0.006000
       }
      }
     }
     JOINT RightCollar
     {
      OFFSET -2.921100 9.558500 0.000000
      CHANNELS 3 Yrotation Xrotation Zrotation
      JOINT RightShoulder
      {
       OFFSET -13.519700 0.000000 0.000000
       CHANNELS 3 Yrotation Xrotation Zrotation
       JOINT RightElbow
       {
        OFFSET 0.000000 -29.696600 0.000000
        CHANNELS 3 Yrotation Xrotation Zrotation
        JOINT RightWrist
        {
         OFFSET 0.000000 -24.004700 0.000000
         CHANNELS 3 Yrotation Xrotation Zrotation
         End Site
         {
          OFFSET 0.000000 -17.728500 0.000000
         }
        }
       }
      }
     }
     JOINT LeftCollar
     {
      OFFSET 2.921100 9.558500 0.000000
      CHANNELS 3 Yrotation Xrotation Zrotation
      JOINT LeftShoulder
      {
       OFFSET 13.519700 0.000000 0.000000
       CHANNELS 3 Yrotation Xrotation Zrotation
       JOINT LeftElbow
       {
        OFFSET 0.000000 -29.696600 0.000000
        CHANNELS 3 Yrotation Xrotation Zrotation
        JOINT LeftWrist
        {
         OFFSET 0.000000 -24.004700 0.000000
         CHANNELS 3 Yrotation Xrotation Zrotation
         End Site
         {
          OFFSET 0.000000 -17.728500 0.000000
         }
        }
       }
      }
     }
    }
   }
  }
 }
 JOINT RightHip
 {
  OFFSET -7.771700 -0.012900 -0.001300
  CHANNELS 3 Yrotation Xrotation Zrotation
  JOINT RightKnee
  {
   OFFSET 0.000000 -40.869800 0.001200
   CHANNELS 3 Yrotation Xrotation Zrotation
   JOINT RightAnkle
   {
    OFFSET 0.000000 -39.717900 0.002100
    CHANNELS 3 Yrotation Xrotation Zrotation
    JOINT RightToe
    {
     OFFSET 0.000000 -4.965400 11.033500
     CHANNELS 3 Yrotation Xrotation Zrotation
     End Site
     {
      OFFSET 0.000000 -1.423100 5.872300
     }
    }
   }
  }
 }
 JOINT LeftHip
 {
  OFFSET 7.771700 -0.012900 -0.001300
  CHANNELS 3 Yrotation Xrotation Zrotation
  JOINT LeftKnee
  {
   OFFSET 0.000000 -40.869800 0.001200
   CHANNELS 3 Yrotation Xrotation Zrotation
   JOINT LeftAnkle
   {
    OFFSET 0.000000 -39.717900 0.002100
    CHANNELS 3 Yrotation Xrotation Zrotation
    JOINT LeftToe
    {
     OFFSET 0.000000 -4.965400 11.033500
     CHANNELS 3 Yrotation Xrotation Zrotation
     End Site
     {
      OFFSET 0.000000 -1.423100 5.872300
     }
    }
   }
  }
 }
}
MOTION
Frames: 11
Frame Time: 0.008333
0.000000 85.388000 0.000000 0.000000 -5.767877 0.000000 0.000000 11.653817 0.000000 0.000000 -5.885947 0.000000 0.000000 -0.000000 0.000000 0.000000 -0.000000 0.000000 0.000000 12.528835 0.000000 0.000000 0.711642 0.000000 0.000000 -0.000000 0.000000 0.000000 0.000000 -90.000000 0.000000 -2.309062 0.000000 0.000000 2.309062 0.000000 0.000000 -0.000000 0.000000 0.000000 -0.000000 90.000000 0.000000 -2.309062 0.000000 0.000000 2.309062 0.000000 0.000000 8.520406 0.000000 0.000000 1.905762 0.000000 -0.000000 -4.658285 0.000000 0.000000 -0.000000 0.000000 0.000000 8.520406 0.000000 0.000000 1.905762 0.000000 -0.000000 -4.658285 0.000000 0.000000 -0.000000 0.000000
-54.288376 50.205569 35.194119 172.658911 -29.046878 -4.953957 6.130806 17.607560 5.685213 0.651924 2.150951 0.566496 1.035044 3.457852 0.863084 5.203006 15.334600 4.552559 -0.374911 15.594109 3.391043 -1.928773 -6.743554 6.457325 1.393613 -0.021785 -6.255979 6.540280 -13.227651 -13.951536 163.205786 -64.674682 -168.231727 -2.336462 -9.923594 -14.366921 -10.248971 -2.110077 -0.931471 4.685557 -18.204445 11.518093 143.155086 -63.282363 -158.709111 27.501806 -4.721280 -6.867787 3.997831 -53.094067 7.061977 -5.229154 86.660920 4.833172 -3.566673 -6.171347 -2.116498 0.008030 0.190543 0.012212 -13.226218 -55.532403 18.285493 -174.087768 87.874746 179.562398 -0.747651 -7.576307 2.661787 -0.014280 -0.197876 0.009614
-54.290888 50.207662 35.196039 172.681392 -28.961969 -4.979554 6.086785 17.510193 5.660429 0.640616 2.116222 0.545006 1.026326 3.429702 0.873283 5.170673 15.260722 4.540291 -0.175462 15.666002 3.618312 -1.635224 -6.611011 6.805532 1.297765 0.087902 -6.244718 6.546867 -12.675814 -13.729260 163.342967 -64.538538 -167.850975 -2.195788 -10.113012 -14.725823 -9.992554 -2.171068 -0.975454 4.603879 -17.417448 11.408168 144.358236 -62.811498 -160.321517 27.498476 -5.056833 -7.536498 3.957969 -53.170714 7.079245 -5.396720 86.651773 4.661458 -3.560677 -6.170165 -2.109590 0.010326 0.190620 0.007947 -13.289719 -55.612564 18.348365 -174.886654 87.876388 178.753079 -0.789838 -7.572870 2.678142 -0.017186 -0.196828 0.010155
-54.293549 50.210263 35.196569 172.698733 -28.872311 -5.004440 6.053971 17.412661 5.652017 0.609218 2.064153 0.520831 1.017771 3.395889 0.871779 5.132643 15.177191 4.525074 0.037176 15.764473 3.847062 -1.315998 -6.430113 7.150816 1.226124 0.207594 -6.243748 6.675617 -12.091017 -13.452203 163.447915 -64.464451 -167.527709 -2.106876 -10.287127 -15.072738 -9.720789 -2.247249 -1.024947 4.431313 -16.537792 11.299684 145.791955 -62.385116 -162.020260 27.436942 -5.424556 -8.043955 3.926244 -53.252651 7.094886 -5.623269 86.644845 4.434123 -3.555353 -6.169719 -2.101295 0.015350 0.188352 0.002390 -13.356238 -55.697222 18.407270 -175.033586 87.875836 178.606158 -0.797732 -7.571459 2.680197 -0.010756 -0.196948 0.004523
-54.297017 50.212949 35.195556 172.713734 -28.779076 -5.024143 6.017819 17.309600 5.637104 0.564805 1.995124 0.496121 1.009823 3.359608 0.869571 5.085126 15.082687 4.504705 0.261730 15.897187 4.078282 -0.973289 -6.186781 7.495033 1.183148 0.353152 -6.260065 6.905856 -11.493250 -13.096757 163.540954 -64.449396 -167.261737 -2.051991 -10.427218 -15.386516 -9.435192 -2.320894 -1.077721 4.181272 -15.584583 11.188162 147.415082 -61.997447 -163.771899 27.298501 -5.793648 -8.394003 3.899052 -53.338946 7.106298 -5.956330 86.640830 4.097312 -3.543151 -6.170383 -2.093206 0.009263 0.185166 -0.000198 -13.408455 -55.785618 18.463220 -175.636719 87.878049 177.995797 -0.828537 -7.572503 2.687710 -0.011505 -0.196624 0.008002
-54.300164 50.215441 35.193362 172.726682 -28.682230 -5.043951 5.958608 17.179215 5.606343 0.537904 1.947744 0.487915 0.989031 3.304661 0.857841 5.027293 14.976615 4.478973 0.494151 16.068632 4.311523 -0.614062 -5.872487 7.838813 1.168676 0.529982 -6.296826 7.173484 -10.902955 -12.662962 163.733447 -64.483054 -167.105018 -2.021822 -10.516031 -15.658794 -9.145644 -2.378267 -1.134127 3.867882 -14.579478 11.075433 149.176825 -61.648513 -165.539750 27.084685 -6.137754 -8.600143 3.866067 -53.428376 7.122833 -5.996784 86.636338 4.050350 -3.542117 -6.172625 -2.090020 0.003519 0.181535 0.000945 -13.444475 -55.879394 18.517806 -175.801991 87.873881 177.825480 -0.857429 -7.575399 2.703424 -0.008596 -0.195950 0.011162
-54.303480 50.217490 35.190055 172.736111 -28.581684 -5.058773 5.832613 16.988787 5.531080 0.563639 1.946510 0.497281 0.966754 3.244204 0.844467 4.965173 14.858366 4.448360 0.727541 16.281003 4.547517 -0.251350 -5.482561 8.186391 1.171422 0.730224 -6.336773 7.467263 -10.320580 -12.172796 164.019368 -64.558892 -167.047542 -2.009142 -10.558029 -15.893344 -8.872028 -2.410937 -1.191524 3.503337 -13.545094 10.971162 151.018113 -61.342711 -167.281873 26.815805 -6.428243 -8.687528 3.831179 -53.522983 7.144632 -6.065484 86.634960 3.965289 -3.540827 -6.175724 -2.084243 0.004374 0.180033 0.002970 -13.496921 -55.974940 18.583140 -175.828203 87.868522 177.784942 -0.870878 -7.575068 2.698102 -0.013258 -0.199778 0.029612
-54.306663 50.219160 35.185528 172.742001 -28.479021 -5.069300 5.737029 16.805340 5.468008 0.564594 1.921202 0.494502 0.944645 3.179486 0.829712 4.905422 14.729053 4.414026 0.953737 16.533317 4.786012 0.099892 -5.018334 8.540374 1.174883 0.947311 -6.363110 7.783354 -9.754906 -11.646799 164.349986 -64.674446 -167.036794 -1.998530 -10.569918 -16.120786 -8.627752 -2.395398 -1.237348 3.099826 -12.534157 10.871825 152.873206 -61.095028 -168.953567 26.516732 -6.644688 -8.700625 3.802303 -53.621048 7.161127 -5.985113 86.635981 4.030222 -3.546716 -6.179408 -2.079035 0.003586 0.178274 0.004398 -13.545511 -56.070297 18.656306 -175.728471 87.862203 177.857677 -0.896139 -7.579746 2.721874 -0.015368 -0.200855 0.035097
-54.308946 50.220313 35.180207 172.748713 -28.372274 -5.081998 5.662946 16.627246 5.414503 0.551610 1.879121 0.484965 0.923601 3.112943 0.814244 4.850823 14.593249 4.377534 1.166317 16.819267 5.024230 0.428726 -4.491346 8.897921 1.168462 1.172405 -6.372196 8.107747 -9.226799 -11.100998 164.672049 -64.832103 -167.010066 -1.978843 -10.577106 -16.376799 -8.409616 -2.302761 -1.251940 2.672427 -11.616913 10.757115 154.696468 -60.922671 -170.537272 26.189423 -6.778850 -8.675138 3.763942 -53.722655 7.183807 -5.998639 86.639046 4.001136 -3.547169 -6.184654 -2.076113 0.005621 0.176804 0.004957 -13.602610 -56.170145 18.731003 -175.532202 87.854656 178.033007 -0.912997 -7.585406 2.740940 -0.016702 -0.202081 0.037721
-54.310120 50.221134 35.173533 172.755688 -28.265908 -5.097352 5.595732 16.448656 5.361841 0.539599 1.837684 0.475494 0.904172 3.047301 0.798921 4.802309 14.456581 4.340994 1.336192 17.128818 5.189771 0.749892 -3.922845 9.312877 1.145247 1.391177 -6.365777 8.437232 -8.753742 -10.552733 164.911911 -65.040525 -166.896219 -1.943995 -10.609750 -16.680543 -8.207607 -2.141678 -1.234073 2.238290 -10.818849 10.620332 156.500690 -60.833260 -172.079165 25.832868 -6.832843 -8.627804 3.716285 -53.822993 7.213015 -6.060221 86.643892 3.924387 -3.540733 -6.192033 -2.074385 0.006758 0.175352 0.003425 -13.665505 -56.270372 18.808756 -175.380185 87.843751 178.168341 -0.927871 -7.590172 2.752741 -0.015744 -0.203136 0.028601
-54.310084 50.221518 35.165197 172.763436 -28.162762 -5.116108 5.536271 16.275641 5.313402 0.528677 1.798060 0.466722 0.886654 2.984477 0.784779 4.760294 14.322781 4.308361 1.525588 17.440189 5.446290 1.009893 -3.338780 9.620108 1.097855 1.594445 -6.351327 8.774749 -8.348499 -10.013458 165.008810 -65.303848 -166.639298 -1.890591 -10.675596 -17.046020 -8.015290 -1.967111 -1.208548 1.818988 -10.101338 10.471322 158.301575 -60.827015 -173.629648 25.461876 -6.827933 -8.588599 3.668320 -53.920581 7.243656 -6.199230 86.650872 3.778956 -3.542266 -6.200653 -2.076366 0.007331 0.173139 0.002375 -13.733760 -56.367700 18.892674 -175.248844 87.828950 178.283676 -0.943785 -7.595293 2.760500 -0.015909 -0.208820 0.036700
